<svg xmlns="http://www.w3.org/2000/svg" viewBox="0 0 180 180">
  <rect width="180" height="180" rx="42" fill="#111827"/>
  <path d="M111.4 25.6c-7.9 1.1-16.6 6.5-21.4 13.5-4.5 6.5-6.5 14.3-5.4 21.4 7.9.3 15.8-4.2 21.4-10.4 4.8-5.9 7.9-14.9 5.4-24.5Z" fill="#fff"/>
  <path d="M131.3 97.6c0-16.9 13.5-25.1 14.3-25.6-7.9-11.5-20-13.5-23.9-13.5-10.1-1.1-19.4 5.9-24.5 5.9-5.3 0-12.7-5.9-21.1-5.6-11 0-21.1 6.5-26.7 16-11.2 20-3.1 49.2 7.9 65.3 5.3 7.9 11.5 16 20.3 15.8 8.2-.3 11.2-5.3 21.1-5.3s12.7 5.3 21.1 4.8c9 0 14.3-7.6 19.4-15.5 4.2-5.6 7-12.1 9-18.8-11.5-4.5-16.9-13.5-16.9-23.3Z" fill="#fff"/>
</svg>
