<svg xmlns="http://www.w3.org/2000/svg" viewBox="0 0 64 64">
  <rect width="64" height="64" rx="18" fill="#111827"/>
  <path d="M39.6 9.1c-2.8.4-5.9 2.3-7.6 4.8-1.6 2.3-2.3 5.1-1.9 7.6 2.8.1 5.6-1.5 7.6-3.7 1.7-2.1 2.8-5.3 1.9-8.7Z" fill="#fff"/>
  <path d="M46.7 34.7c0-6 4.8-8.9 5.1-9.1-2.8-4.1-7.1-4.8-8.5-4.8-3.6-.4-6.9 2.1-8.7 2.1-1.9 0-4.5-2.1-7.5-2-3.9 0-7.5 2.3-9.5 5.7-4 7.1-1.1 17.5 2.8 23.2 1.9 2.8 4.1 5.7 7.2 5.6 2.9-.1 4-1.9 7.5-1.9s4.5 1.9 7.5 1.7c3.2 0 5.1-2.7 6.9-5.5 1.5-2 2.5-4.3 3.2-6.7-4.1-1.6-6-4.8-6-8.3Z" fill="#fff"/>
</svg>
